<svg id="Layer_3" version="1.1" viewBox="0 0 32 32" xml:space="preserve" xmlns="http://www.w3.org/2000/svg"><g fill="#F0E3CA"><path d="M20 5h-1c0-1.654-1.346-3-3-3s-3 1.346-3 3h-1a1 1 0 0 0-1 1v1H8.821A2.825 2.825 0 0 0 6 9.821v17.357A2.825 2.825 0 0 0 8.821 30h14.357A2.825 2.825 0 0 0 26 27.179V9.821A2.825 2.825 0 0 0 23.179 7H21V6a1 1 0 0 0-1-1zm-4-1c.551 0 1 .448 1 1h-2c0-.552.449-1 1-1zm-3 3h6v2h-6V7zm10.179 2c.452 0 .821.368.821.821v17.357a.822.822 0 0 1-.821.822H8.821A.822.822 0 0 1 8 27.179V9.821C8 9.368 8.369 9 8.821 9H11v1a1 1 0 0 0 1 1h8a1 1 0 0 0 1-1V9h2.179z"/><path d="M13 13h-3a1 1 0 0 0-1 1v3a1 1 0 0 0 1 1h3a1 1 0 0 0 1-1v-3a1 1 0 0 0-1-1zm-1 3h-1v-1h1v1zM15 15.5a1 1 0 0 0 1 1h6a1 1 0 1 0 0-2h-6a1 1 0 0 0-1 1zM13 20h-3a1 1 0 0 0-1 1v3a1 1 0 0 0 1 1h3a1 1 0 0 0 1-1v-3a1 1 0 0 0-1-1zm-1 3h-1v-1h1v1zM22 21.5h-6a1 1 0 1 0 0 2h6a1 1 0 1 0 0-2z"/></g></svg>