<svg id="Layer_1" style="enable-background:new 0 0 24 24" version="1.1" viewBox="0 0 24 24" xml:space="preserve" xmlns="http://www.w3.org/2000/svg"><style>.st0{fill:none;stroke:#f0e3ca;stroke-width:1.5px;stroke-linecap:round;stroke-linejoin:round;stroke-miterlimit:10}</style><path class="st0" d="M9.2 17.8C8.9 16 8.1 14.3 6.8 13c-1.3-1.3-2.1-3.1-2.1-5 0-4.3 3.7-7.6 8-7.2 3.3.3 5.9 3 6.4 6.2.3 2.2-.4 4.3-1.8 5.8-1.3 1.4-2.2 3.1-2.6 5"/><path d="M9.7 22.3c.3 1 1.2 1.7 2.3 1.7s2-.7 2.3-1.7H9.7z"/><path class="st0" d="M15.3 22H8.7c-.4 0-.7-.3-.7-.7v-2.7c0-.4.3-.7.7-.7h6.5c.4 0 .7.3.7.7v2.7c.1.4-.2.7-.6.7zM12 17.8V9.9M9.1 9.9l1.5-1.4L12 9.9l1.4-1.4 1.5 1.4"/></svg>